<svg viewBox="0 0 1024 1024" xmlns="http://www.w3.org/2000/svg"><path d="M436.163 143.513c-42.596 8.659-52.15 15.625-52.15 41.601 0 21.696.895 21.696 45.98 15.625 60.808-9.554 213.677-6.07 240.548 5.275 30.355 11.346 42.597 33.938 48.667 88.576 6.967 60.81-12.141 84.197-67.676 84.197-20.9.896-82.505 2.588-138.935 4.38-126.793 4.379-132.068 0-133.76-95.543-.896-34.734-3.384-66.88-6.966-72.951-9.555-15.625-38.218-11.246-48.668 6.966-9.554 19.109-11.345 101.614-1.691 148.49 10.35 54.638 29.558 72.155 84.197 76.434 40.804 3.384 46.875 6.071 37.321 16.521-24.284 29.559-108.58 63.397-159.736 63.397-40.904 0-59.913 16.52-51.254 43.392 8.658 27.767 64.292 24.284 164.114-11.246 33.042-12.242 106.79-70.363 125.102-99.822 14.73-22.592 16.52-23.389 101.613-22.592 105.894.895 138.936-9.555 156.352-52.15 15.626-37.322 16.521-61.606 3.484-115.448-21.796-90.467-33.838-103.406-107.685-122.514-39.212-10.45-191.981-12.142-238.857-2.588zm-1.792 128.485c-4.379 6.071-6.966 17.318-5.274 25.976 2.587 13.933 13.933 15.625 111.168 15.625l108.58-.895 2.588-23.388c3.483-27.768 9.554-25.976-113.756-26.971-64.193-.697-97.235 2.687-103.306 9.653zM584.652 457.81c-15.625 6.071-19.108 13.038-15.625 29.559 3.483 20.004-6.07 28.663-92.955 85.889-60.81 40.904-115.448 69.467-148.49 79.022-96.438 27.767-114.551 41.7-91.163 69.467C272.944 765.14 434.47 683.53 608.14 533.348c37.321-32.146 70.264-30.355 86.884 3.483 8.659 19.109 17.317 24.284 39.91 24.284 62.5 0 81.609 72.155 36.524 138.139-45.183 65.188-123.31 94.647-178.048 66.88-24.283-13.038-27.767-13.038-32.146-.896-6.966 16.521 10.35 59.018 32.146 79.022 32.943 29.559 130.178-.896 199.745-63.397 44.288-39.909 59.017-67.775 63.396-121.518 7.763-97.235-66.88-187.602-166.702-198.849-22.592-2.587-50.36-6.07-62.501-6.966-12.241-1.792-31.45-.1-42.696 4.28zm36.426 153.765c-117.14 92.855-216.265 148.39-312.604 174.465-56.53 15.625-59.913 70.263-4.38 70.263 33.938 0 131.173-41.7 184.12-79.021 26.871-19.109 55.534-33.938 63.396-33.938 7.763 0 14.73-5.275 14.73-11.346 0-6.966 22.592-31.25 49.563-54.638 80.813-69.468 83.301-72.155 71.259-86.885-13.934-17.217-19.109-15.426-66.084 21.1z" fill="#DE575B"/></svg>