<svg viewBox="0 0 2755 1024" xmlns="http://www.w3.org/2000/svg" fill="currentColor" overflow="hidden"><path d="M2492.998 359.032l-141.59-32.869-25.285-10.114-649.797 5.057v313.521l816.672 2.529z" fill="#FFF"/><path d="M2227.516 606.815c7.585-25.284 5.057-50.568-7.585-65.738-12.642-15.17-30.34-25.284-53.096-27.813l-439.941-5.057c-2.529 0-5.057-2.528-7.585-2.528-2.529-2.528-2.529-5.057 0-7.585 2.528-5.057 5.056-7.585 10.113-7.585l442.47-5.057c53.096-2.529 108.72-45.511 128.948-96.08l25.283-65.737c0-2.529 2.529-5.057 0-7.586-27.812-128.948-144.118-225.027-280.651-225.027-126.42 0-235.141 80.909-273.067 194.687-25.284-17.7-55.625-27.813-91.022-25.284-60.682 5.056-108.721 55.624-116.306 116.306-2.529 15.17 0 30.34 2.528 45.511-98.607 2.528-179.516 83.437-179.516 184.573 0 10.113 0 17.699 2.528 27.812 0 5.057 5.057 7.585 7.585 7.585h811.615c5.057 0 10.114-2.528 10.114-7.585l7.585-27.812z" fill="#F48120"/><path d="M2366.578 323.635h-12.642c-2.529 0-5.057 2.528-7.585 5.056l-17.7 60.682c-7.584 25.284-5.056 50.568 7.586 65.738 12.642 15.17 30.34 25.284 53.096 27.812l93.551 5.057c2.528 0 5.057 2.529 7.585 2.529 2.529 2.528 2.529 5.056 0 7.585-2.528 5.057-5.057 7.585-10.113 7.585l-96.08 5.057c-53.096 2.528-108.72 45.51-128.948 96.079l-5.056 22.755c-2.529 2.529 0 7.586 5.056 7.586h333.749c5.056 0 7.585-2.529 7.585-7.586 5.057-20.227 10.113-42.982 10.113-65.738 0-131.476-108.72-240.197-240.197-240.197" fill="#FAAD3F"/><path d="M2639.644 778.746c-12.642 0-22.755-10.114-22.755-22.756s10.113-22.755 22.755-22.755 22.756 10.113 22.756 22.755-10.114 22.756-22.756 22.756m0-40.455c-10.113 0-17.698 7.586-17.698 17.7 0 10.113 7.585 17.698 17.698 17.698 10.114 0 17.7-7.585 17.7-17.699 0-10.113-7.586-17.699-17.7-17.699m10.114 30.341h-5.057l-5.057-7.585h-5.056v7.585h-5.057v-22.755h12.642c5.057 0 7.585 2.528 7.585 7.585 0 2.528-2.528 5.057-5.057 7.585l5.057 7.585zm-7.585-12.642c2.528 0 2.528 0 2.528-2.528s-2.528-2.529-2.528-2.529h-7.585v7.586h7.585zm-2267.97-22.755h55.624v151.703h96.08v48.04H374.201zm209.856 98.607c0-58.153 45.511-103.664 108.721-103.664s106.193 45.51 106.193 103.664-45.511 103.664-108.721 103.664c-60.682 0-106.193-45.51-106.193-103.664m159.29 0c0-30.34-20.228-55.625-50.569-55.625s-50.568 25.284-50.568 53.097 20.228 53.096 50.568 53.096c30.341 5.057 50.568-20.227 50.568-50.568m123.892 12.642v-111.25h55.624v111.25c0 27.812 15.17 42.983 37.926 42.983s37.926-12.642 37.926-40.455V733.235h55.625v111.249c0 65.738-37.926 93.55-93.55 93.55-58.154-2.528-93.551-30.34-93.551-93.55m270.538-111.25h78.38c70.795 0 113.778 40.455 113.778 98.608s-42.983 101.136-113.778 101.136h-75.852V733.235zm78.38 149.176c32.87 0 55.625-17.699 55.625-50.568s-22.756-50.568-55.625-50.568h-22.756V882.41h22.756zm192.158-149.175h159.289v48.04H1463.94v32.868h93.55v45.511h-93.55v73.324h-55.625zm237.67 0h55.624v151.703h96.079v48.04h-151.704zm295.821-2.529h55.625l85.966 202.272h-60.682l-15.17-35.398h-78.38l-15.17 35.398h-58.154l85.965-202.272zm50.568 123.892l-22.755-55.625-22.756 55.625h45.511zm161.818-121.363h93.55c30.341 0 50.568 7.585 65.738 22.755 12.642 12.642 17.7 27.812 17.7 45.511 0 30.341-15.171 50.568-40.455 60.682l48.04 70.795h-63.21l-40.455-60.682h-25.284v60.682h-55.624V733.235zm91.022 96.079c17.699 0 30.34-10.114 30.34-22.756 0-15.17-12.641-22.756-30.34-22.756h-35.398v48.04h35.398zm164.345-96.08h161.818v45.512h-106.193v30.34h96.08v45.512h-96.08v30.34h108.721v48.04H2409.56zM252.84 857.127c-7.586 17.699-25.284 30.34-45.512 30.34-30.34 0-50.568-25.283-50.568-53.096s20.228-53.096 50.568-53.096c22.756 0 40.455 15.17 48.04 32.87h58.153c-10.114-48.04-50.568-83.438-106.193-83.438-60.681 0-108.72 45.511-108.72 103.664s45.51 103.665 106.192 103.665c53.096 0 93.55-35.398 106.193-80.91H252.84z" fill="#404041"/></svg>